<svg width="131" height="40" viewBox="0 0 131 40" fill="none" xmlns="http://www.w3.org/2000/svg">
<path d="M44.4738 15.0134C41.8056 15.0134 39.7936 17.153 39.7936 19.9944C39.7936 22.8359 41.8268 24.9755 44.5219 24.9755C47.1892 24.9755 49.2013 22.8359 49.2013 19.9944C49.2013 17.153 47.1689 15.0134 44.4738 15.0134ZM57.9953 0.202839H0V40H57.9953L71.691 20.1442L57.9953 0.202839ZM30.3249 26.2952L30.1905 26.4108C28.0254 28.268 25.5188 29.2094 22.7407 29.2094C20.114 29.2094 17.7444 28.2808 16.0688 26.5948C14.4084 24.9224 13.4928 22.5783 13.4928 19.9944C13.4928 17.5125 14.4227 15.2017 16.1136 13.49C17.8289 11.7432 20.1715 10.7812 22.7205 10.7812C25.5949 10.7812 27.5824 11.4864 29.5928 13.2144L29.8794 13.4609L27.0532 16.9031L26.7598 16.6558C25.5272 15.6159 24.4502 15.0134 22.5945 15.0134C20.1335 15.0134 18.1316 17.248 18.1316 19.9944C18.1316 22.9095 20.12 25.0243 22.8591 25.0243C24.0647 25.0243 25.1366 24.7341 25.9728 24.1821V22.3309H22.2394V18.3153H30.3249V26.2952ZM51.1863 26.5032C49.4465 28.2483 47.0624 29.2094 44.4738 29.2094C41.8851 29.2094 39.5061 28.2551 37.784 26.5212C36.0881 24.8137 35.1539 22.4987 35.1539 19.9944C35.1463 18.7853 35.3771 17.5868 35.833 16.4691C36.2888 15.3514 36.9605 14.3371 37.8085 13.4857C39.5484 11.7406 41.9325 10.7837 44.5219 10.7837C47.1114 10.7837 49.4887 11.7389 51.2108 13.472C52.9067 15.1794 53.8409 17.4945 53.8409 19.9987C53.8481 21.2072 53.617 22.4049 53.1612 23.5218C52.7054 24.6387 52.034 25.6523 51.1863 26.5032Z" fill="black"/>
<path d="M13.8512 20.027C13.8512 15.2581 17.5203 11.352 22.5387 11.352C25.5213 11.352 27.3203 12.1668 29.0484 13.6526L26.7522 16.4563C25.474 15.378 24.3377 14.7549 22.4203 14.7549C19.7691 14.7549 17.6624 17.1273 17.6624 20.027C17.6624 23.0943 19.7454 25.3469 22.6807 25.3469C24.0063 25.3469 25.1899 25.0114 26.1131 24.3405V21.9441H22.444V18.7535H29.6402V26.0385C27.9358 27.5003 25.5923 28.6985 22.5624 28.6985C17.402 28.6985 13.8512 25.032 13.8512 20.027Z" fill="white" stroke="white" stroke-miterlimit="10"/>
<path d="M35.8319 20.1442C35.8319 15.3754 39.5518 11.4693 44.6614 11.4693C49.7711 11.4693 53.4436 15.3275 53.4436 20.1442C53.4436 24.913 49.7238 28.8191 44.6141 28.8191C39.5044 28.8191 35.8319 24.961 35.8319 20.1442ZM49.6325 20.1442C49.6325 17.2685 47.5494 14.8722 44.6141 14.8722C41.6788 14.8722 39.6431 17.2206 39.6431 20.1442C39.6431 23.0199 41.7262 25.4163 44.6614 25.4163C47.5967 25.4163 49.6325 23.0678 49.6325 20.1442Z" fill="white" stroke="white" stroke-miterlimit="10"/>
<path d="M131 0H73.0766V39.7972H131V0Z" fill="#FF6C00"/>
<path d="M90.9224 11.928H94.5678V28.7027H90.9224V11.928Z" fill="white" stroke="white" stroke-miterlimit="10"/>
<path d="M105.352 15.3309H100.31V11.928H114.039V15.3309H108.997V28.7027H105.352V15.3309Z" fill="white" stroke="white" stroke-miterlimit="10"/>
</svg>
