<svg xmlns="http://www.w3.org/2000/svg"><path style="fill:#264de4" d="m255.778 512-148.134-41.123L74.633 100.62h362.734l-33.046 370.199z" transform="translate(-74.633)"/><path style="fill:#2965f1" d="m376.03 447.246 28.24-316.352H256v349.629z" transform="translate(-74.633)"/><path style="fill:#ebebeb" d="m150.31 268.217 4.07 45.41H256v-45.41zM142.132 176.305l4.128 45.411H256v-45.411h-.157zM256 386.153l-.199.053-50.574-13.656-3.233-36.217h-45.585l6.362 71.301 93.02 25.823.209-.058z" transform="translate(-74.633)"/><path d="M85.367 0h55v23h-32v23h32v23h-55zM151.367 0h55v20h-32v4h32v46h-55V49h32v-4h-32zM217.367 0h55v20h-32v4h32v46h-55V49h32v-4h-32z"/><path style="fill:#fff" d="m361.399 268.217 8.198-91.912H255.843v45.411h63.988l-4.132 46.501h-59.856v45.41h55.918l-5.271 58.894-50.647 13.67v47.244l93.094-25.801.683-7.672 10.671-119.551z" transform="translate(-74.633)"/><g><path style="fill:#e44d26" d="m437.367 100.62-33.046 370.199L255.778 512l-148.134-41.123L74.633 100.62z" transform="translate(353.938)"/><path style="fill:#f16529" d="m256 480.523 120.03-33.277 28.24-316.352H256z" transform="translate(353.938)"/><path style="fill:#ebebeb" d="M191.76 221.716H256v-45.411H142.132l1.087 12.183 11.161 125.139H256v-45.41h-60.09zM201.994 336.333h-45.585l6.362 71.301 93.02 25.823.209-.058v-47.246l-.199.053-50.574-13.656z" transform="translate(353.938)"/><path d="M462.32 0h23.077v22.8h21.11V0h23.078v69.044h-23.077v-23.12h-21.11v23.12h-23.077V0zM559.932 22.896h-20.316V0h63.72v22.896h-20.325v46.148h-23.078V22.896zM613.45 0h24.062l14.802 24.26L667.101 0h24.072v69.044h-22.982V34.822l-15.877 24.549h-.397L636.03 34.822v34.222h-22.58V0zM702.658 0h23.084v46.222h32.453v22.822h-55.537V0z"/><path style="fill:#fff" d="M255.843 313.627h55.918l-5.271 58.894-50.647 13.67v47.244l93.094-25.801.683-7.672 10.671-119.551 1.108-12.194H255.843zM255.843 221.605v.111h109.688l.911-10.207 2.069-23.021 1.086-12.183H255.843v28.204z" transform="translate(353.938)"/></g></svg>